<?xml version="1.0" encoding="iso-8859-1"?>
<!-- Generator: Adobe Illustrator 16.0.0, SVG Export Plug-In . SVG Version: 6.00 Build 0)  -->
<!DOCTYPE svg PUBLIC "-//W3C//DTD SVG 1.1//EN" "http://www.w3.org/Graphics/SVG/1.1/DTD/svg11.dtd">
<svg xmlns="http://www.w3.org/2000/svg" xmlns:xlink="http://www.w3.org/1999/xlink" version="1.1" id="Capa_1" x="0px" y="0px" width="512px" height="512px" viewBox="0 0 612 612" style="enable-background:new 0 0 612 612;" xml:space="preserve">
<g>
	<g id="Shape_886">
		<g>
			<path d="M306,0.836C136.996,0.836,0,137.465,0,306.01c0,168.523,136.996,305.154,306,305.154S612,474.533,612,306.01     C612,137.465,474.993,0.836,306,0.836z M71.4,316.17H51c-5.63,0-10.2-4.561-10.2-10.16c0-5.62,4.57-10.18,10.2-10.18h20.4     c5.63,0,10.2,4.56,10.2,10.18C81.6,311.609,77.03,316.17,71.4,316.17z M295.8,51.683c0-5.6,4.57-10.159,10.2-10.159     c5.631,0,10.2,4.559,10.2,10.159v20.359c0,5.621-4.569,10.18-10.2,10.18c-5.63,0-10.2-4.559-10.2-10.18V51.683z M316.2,560.295     c0,5.621-4.569,10.18-10.2,10.18c-5.63,0-10.2-4.559-10.2-10.18v-20.357c0-5.621,4.57-10.16,10.2-10.16     c5.631,0,10.2,4.539,10.2,10.16V560.295z M348.911,348.799L139.75,471.066l122.614-208.58l209.161-122.288L348.911,348.799z      M561,316.17h-20.4c-5.63,0-10.199-4.561-10.199-10.16c0-5.62,4.569-10.18,10.199-10.18H561c5.631,0,10.2,4.56,10.2,10.18     C571.2,311.609,566.631,316.17,561,316.17z M325.35,339.689l-53.856-53.692l-74.052,127.53L325.35,339.689z" fill="#aaaaaa"/>
		</g>
	</g>
</g>
<g>
</g>
<g>
</g>
<g>
</g>
<g>
</g>
<g>
</g>
<g>
</g>
<g>
</g>
<g>
</g>
<g>
</g>
<g>
</g>
<g>
</g>
<g>
</g>
<g>
</g>
<g>
</g>
<g>
</g>
</svg>
