<?xml version="1.0" standalone="no"?><!DOCTYPE svg PUBLIC "-//W3C//DTD SVG 1.1//EN" "http://www.w3.org/Graphics/SVG/1.1/DTD/svg11.dtd"><svg width="200" height="200" viewBox="0 0 200 200" version="1.1" xmlns="http://www.w3.org/2000/svg" xmlns:xlink="http://www.w3.org/1999/xlink"><defs><style type="text/css"><![CDATA[
@font-face { font-family: ifont; src: url("http://at.alicdn.com/t/font_1442373896_4754455.eot?#iefix") format("embedded-opentype"), url("http://at.alicdn.com/t/font_1442373896_4754455.woff") format("woff"), url("http://at.alicdn.com/t/font_1442373896_4754455.ttf") format("truetype"), url("http://at.alicdn.com/t/font_1442373896_4754455.svg#ifont") format("svg"); }

]]></style></defs><g class="transform-group"><g transform="scale(0.1953125, 0.1953125)"><path d="M310.878888 428.370301c39.865963-10.735505 97.508801-28.597315 147.960867-47.102784 20.837584-7.821129 41.684378-15.647375 62.532195-23.481807 32.066323-8.563026 67.586304-19.158339 102.45137-29.582759 27.679409-8.269337 62.825884-24.451902 90.266863-31.624255 17.908882-7.064906 35.845393-14.130835 53.763484-21.201881 29.54899-11.574616 90.260723-28.788673 110.259196-29.16218 34.651194-0.647753 25.165146 33.443693 37.916565 48.214095 6.472412 7.494695 15.361873 16.495696 13.749142 28.304649-1.530866 4.737908-3.059686 9.480932-4.580319 14.223956 5.65172 7.070023 3.347235 22.442128 10.828626 30.896684 3.572362 2.952238 7.163143 5.89936 10.745738 8.851599-2.807952 8.343015-5.624091 16.681938-8.442276 25.035186 27.862581 2.471284 3.936659 18.841114 16.183588 29.800723 8.170077 7.326872 15.697517 14.719236 13.981433 29.013801-2.498914 5.605671-4.999874 11.212366-7.489578 16.818037-2.210341 11.93482 6.351662 16.014742 12.741185 19.984147 6.491855 4.03899-3.722788 11.30037-4.347005 14.923898-1.220804 7.17747 12.341073 4.51892 12.227486 13.06762-0.270153 21.621437 4.572132 41.212634 9.458419 59.761082-17.71343 10.29753-21.210068 21.620413-43.969421 32.747845-2.806929 1.385557-111.229291 37.752836-114.606201 38.573527-7.751544 1.898233-16.443507 1.048889-28.235065 6.748704-34.473139 16.625656-56.326866 16.631796-88.573291 31.027667-7.219425 3.221368-15.8285 9.085936-28.214599 12.241812-8.515954 1.147126-17.041118 2.290159-25.566282 3.437286-8.591679 4.594645-17.181311 9.184173-25.76685 13.762445-15.101953 6.40385-42.25436 13.560854-53.53938 16.383132-53.446259 13.376659-137.244804 58.512648-156.477844 44.581358 2.90005-2.594081 5.811356-5.192256 8.730848-7.794523 24.65247-4.019547 70.786183-27.255761 107.545388-36.889165 19.829628-5.200442 46.478568-14.420431 66.916039-21.86703 18.253736-4.294816 36.520775-8.586562 54.766324-12.879332 20.380166-6.537903 38.624692-20.168342 63.258743-26.89351 9.074679-1.339508 18.168802-2.686179 27.263947-4.02978 13.925151-3.5345 14.102183-10.288321 23.579021-14.564717 9.981329-2.442632 19.952424-4.886287 29.941939-7.335059 24.325012-8.786107 48.66128-17.582447 72.986291-26.360368 41.153282-16.597003 76.103282-22.916942 89.73986-44.062542-10.336416-5.125741-2.136663-10.772344-0.550539-17.936511 1.38044-6.193049-8.898671-3.348258-11.473309-5.447059 0.326435-2.738367 0.63445-5.470595 0.952698-8.212032-2.789533-8.096399-13.964036-14.85022-12.760628-25.492604 0.559748-3.880377 1.109264-7.746428 1.679245-11.626805-5.587252-8.375761-0.298805-19.032472-1.314948-25.557072-2.826372-18.258852-18.34788-34.879392-15.782451-55.973826 2.295276-18.883069-27.889187-22.227234-25.006534-44.076868 1.669012-12.629645 0.064468-32.412201-6.958482-41.712007-2.724041-9.56075-5.437849-19.1215-8.143471-28.686343-4.429893-4.714372-12.730952-13.799284-11.772115-22.688745 0.588401-5.437849 4.860704-18.711154-2.0241-22.152533-10.241248-1.930979-20.48352-3.860934-30.715559-5.801123-18.738783 7.690146-25.212218 6.118348-42.103934 10.810207-30.632671 8.506744-72.78163 27.832905-103.655801 37.099966-22.311145 5.452175-44.62229 10.903328-66.938552 16.360619-8.18031 3.913123-16.368806 7.839549-24.549116 11.751648-12.144598 5.405103-95.41 35.593659-110.475114 39.492456-49.724495 12.867052-110.151749 36.428677-160.603815 49.16577-11.114129 4.686742-22.223141 9.364275-33.332153 14.046924-67.091024 17.144472-150.872173 50.606585-211.914434 77.389578-18.902512 14.634302-18.46249 68.412113-3.856841 81.779561 3.535523 3.245927 11.828396 4.523013 11.734252 11.667737-0.083911 5.372358-5.587252 12.489452-5.792936 16.216333-0.578168 10.137895 12.648065 16.07614 11.538801 27.492144-0.38681 4.071735-7.312546 8.949836-2.873444 13.623275 4.513804 4.756327 24.231891 8.232498 20.281929 19.698644-1.889023 5.504364-4.108574 18.11559 0.821715 24.163329 4.322445 5.053086 8.641821 10.115382 12.960173 15.171538-1.072425 6.771217-8.730848 18.681478-9.402137 27.738761-2.266623 0.797156-4.542456 1.587148-6.809079 2.382257-1.865487 0.125867-3.740184 0.261966-5.615904 0.387833-15.72617-19.159362-23.700795-46.667879-24.353664-69.5224-4.243651-8.506744-8.497535-17.002232-12.750395-25.495674-4.168949-14.065344-4.588505-27.194362-3.067872-41.507346-3.927449-7.560186-7.845689-15.124466-11.771091-22.684652-2.359744-21.145599-23.924899-67.624167-5.149277-80.201623C108.580462 490.6129 245.44255 463.726553 310.878888 428.370301L310.878888 428.370301zM346.337471 351.507726c0.601704 0.605797 1.203408 1.217734 1.805112 1.823532C347.539856 352.72546 346.939175 352.113523 346.337471 351.507726L346.337471 351.507726zM32.912086 462.388069c0.480954 1.455141 0.960885 2.905166 1.441838 4.356214 0.363274-0.116657 0.726547-0.237407 1.086751-0.35918C34.600541 465.055828 33.756313 463.721437 32.912086 462.388069L32.912086 462.388069zM238.796176 457.085296c0.605797 0.606821 1.207501 1.213641 1.809205 1.814322C240.004701 458.297914 239.402997 457.692117 238.796176 457.085296L238.796176 457.085296zM96.161618 690.158632c3.255137 0.132006 6.520507 0.261966 9.784854 0.38374 17.464767 55.889915 17.469883 143.986345 72.486918 149.868309 27.157523 2.90619 63.693648-26.354228 88.135316-25.51921 12.979616 0.437975 26.131147-1.604544 38.443567-7.882528 0.237407 0.721431 0.475837 1.444908 0.718361 2.172479 1.314948 3.986801 2.64013 7.984858 3.955078 11.971659-7.848759 5.222955-15.357779 2.140757-22.478967 5.018294-35.518958 14.33652-51.553143 20.621667-87.771019 22.988574-4.356214 2.644223-8.712429 5.296633-13.06762 7.940856-7.546883 3.837398-12.70537-1.962701-17.396205-1.490957-5.363148 0.539282-5.307889 6.892991-10.884908 7.223518-34.371832-8.058536-48.203862-74.535577-52.289923-110.674659-5.158487-16.802688-10.311857-33.611515-15.464203-50.414203C91.282494 696.516434 93.867366 694.511777 96.161618 690.158632L96.161618 690.158632zM846.9317 394.007679c0.923022-3.450589 4.420683-5.64251 10.399861-6.584975 4.394077 0.662079 11.304464 2.547009 20.744463 5.713119 7.54586 3.791349 8.142447 8.855692 1.855254 15.106046-1.595334 1.586125-2.200108 2.844791-1.893116 3.77293-3.497661 2.211365-8.384971 6.449899-14.662955 12.70844-13.561877 16.023952-22.274306 34.082236-26.088168 54.206576-0.970094 3.464915-2.396583 8.651031-4.281513 15.562441 9.411347 9.458419 29.521361 22.730701 60.311621 39.791262 2.490727 1.287319 3.926426 2.382257 4.234441 3.310396 5.018294 2.541893 17.414625 8.384971 37.244252 17.554818 28.597315 10.4367 44.305065 16.788361 47.15088 18.989493 4.700045 1.587148 4.39203 3.778046-0.960885 6.605442-5.046946 3.753487-10.717086 5.624091-17.004279 5.624091-30.202882-8.880251-58.799174-19.317974-85.820598-31.359218-14.140045-4.753257-31.29475-15.315824-51.357691-31.741935-0.662079 4.412496-0.839111 10.250458-0.522909 17.460674l-1.427512 5.185093c-2.565429 17.630542-3.245927 31.480992-1.986237 41.526789 0.317225 0.950651 0.783853 2.368954 1.408069 4.252861 0.279363 7.227612-1.183965 18.710131-4.327562 34.4363-0.355087 5.345752-4.300956 9.280364-11.828396 11.771091-5.671163 1.874697-9.289574 0.448208-10.848069-4.27128-2.826372-14.783705-3.581572-26.592658-2.275833-35.402301-0.924045-15.414061 0.093121-37.754882 2.994194-67.008136 0.923022-3.446495 1.586125-7.840572 1.920746-13.21293 1.88493-6.91141 2.547009-11.305487 1.921769-13.207813-3.151783-3.134387-6.928806-8.170077-11.295254-15.129582-19.139919-19.848047-31.097252-33.727149-35.770691-41.609677-0.959861 3.460822-8.216125 6.91141-21.732977 10.32516l-33.998325 11.244089c3.125177 9.453303 6.398734 19.373233 9.840112 29.754674 1.25048 3.787256 3.087315 12.615319 5.597485 26.443255 5.586229 23.299659 8.999978 40.000016 10.258645 50.050929-0.074701 25.170263-6.118348 54.429657-18.142196 87.738273-2.24718 5.968945-7.294127 9.727549-15.128559 11.286044-6.304589-0.027629-8.366551-3.004427-6.118348-8.982582 6.072299-38.670741 8.505721-69.345368 7.302313-92.00546-3.413749-22.964014-7.768941-45.621037-13.049201-67.99665-3.432169-10.381441-7.993045-17.788132-13.635555-22.208814-1.90335 0.62524-3.806699 1.258667-5.661953 1.87572-23.947412 10.026354-40.327474 17.535375-49.14121 22.534226 4.691859 14.168698 11.406794 34.493605 20.146852 60.926628 6.258541 18.907629 7.452739 41.546232 3.618411 67.970044-2.919493 22.968108-8.29185 41.498136-16.182564 55.646368-4.113691 6.595208-9.150404 10.344602-15.128559 11.292184-5.988388 0.916882-8.982582-1.74883-8.953929-8.04421 3.814886-20.120246 7.350408-44.333718 10.56666-72.652693 0.345877-24.209378-2.574638-48.913013-8.795317-74.116021-0.288572-13.510712-7.350408-28.466332-21.12718-44.883233-8.497535-12.909008-21.826098-21.593807-40.052205-26.056446-4.748141-1.571798-7.54586-3.791349-8.478092-6.626931-3.115967-9.429767-2.938935-18.403139 0.540306-26.900673 0.914836-3.451612 5.680373-14.453177 14.233166-33.000602 3.796466-7.540743 5.54018-11.776208 5.222955-12.731976 5.65172-8.15268 14.028505-17.726733 25.081235-28.728298 4.729721-4.706185 9.272177-6.720052 13.703093-6.095835l2.835581-0.942465c8.460696 0.344854 10.996448 4.761444 7.518231 13.231349-1.278109 2.536776-3.944845 7.079232-8.058536 13.669324-4.104481 6.613628-6.818289 11.17041-8.05956 13.669324-5.689582 8.170077-11.69639 18.551518-18.000979 31.102369-2.248204 5.997598-2.238994 9.136078-0.028653 9.44 2.173502 0.335644 7.994068-1.068332 17.470907-4.201695 3.767813-1.249457 12.265348-4.057409 25.51-8.436136 26.126031-9.668197 43.899836-16.08535 53.375651-19.219737 15.092743-4.994758 37.767162-12.489452 68.006883-22.4892-2.490727-7.55507-3.749394-14.475689-3.721765-20.776186-5.624091-17.004279-9.075703-33.67189-10.268878-50.050929-2.490727-7.546883 1.920746-13.207813 13.263072-16.957207 11.332093-3.750417 18.403139-1.37123 21.219277 7.130398 3.106758 3.167133 4.365424 10.096962 3.722788 20.777209-0.027629 6.29538 0.605797 11.341303 1.855254 15.10093 9.746992-2.164293 18.244526-4.976338 25.50079-8.432043 11.333116-3.749394 18.898419-9.391904 22.693862-16.938788 1.24127-2.490727 0.802272-7.070023-1.38044-13.68365-0.64366-8.165983-1.220804-13.202697-1.856277-15.110139-1.873674-5.661953 2.202155-9.094122 12.295024-10.353812 8.16189-0.583285 12.909008 0.988514 14.149255 4.756327 4.672416 7.881504 4.812609 20.950148 0.372483 39.166021-0.680499 10.717086-14.988366 21.219277-43.017746 31.521924-5.352915 2.821255-13.703093 6.104021-25.035186 9.844206 1.25048 3.787256 2.65855 8.045233 4.216022 12.755512 11.333116-3.750417 19.839861-6.557346 25.511024-8.432043 11.025101-4.677533 29.884634-10.917654 56.673767-18.742876 9.429767-3.114944 16.023952-5.298679 19.839861-6.557346 15.090697-4.989641 23.606651-4.66423 25.481348 1.006933-0.036839 6.29538-6.818289 11.164271-20.333094 14.579043-24.577768 8.124028-51.981908 17.185404-82.184791 27.175943l-19.829628 6.557346c2.182712 6.621814 4.373611 13.244652 6.556323 19.838837 6.855128 14.504342 20.530592 33.56035 40.918945 57.205886 2.238994-12.261255 4.430916-21.360494 6.670933-27.357068C833.649186 417.262312 842.827219 400.621307 846.9317 394.007679zM602.790284 454.30088c-1.902326 0.62524-4.729721 1.567705-8.497535 2.807952-5.353938 2.826372-9.011234 4.551666-10.867512 5.166673 6.576789 7.257288 12.854772 16.723893 18.804275 28.355815 3.768837-1.240247 9.281387-3.581572 16.537651-7.033184 14.793938-5.922896 23.911596-9.998725 27.399023-12.21009 29.576619-11.864212 53.996798-20.454868 73.211419-25.781176 13.515828-3.40454 23.458271-5.120624 29.745465-5.116531-2.51938-1.254573-3.918239-2.364861-4.235464-3.315512-4.719488-7.872295-9.233292-18.412348-13.609972-31.647791-16.686031 6.571672-37.346583 13.916964-61.878303 22.031782C648.592446 434.4426 626.388748 443.35048 602.790284 454.30088zM274.223037 458.890408c6.604418 0.960885 11.621688 3.501754 15.081487 7.587815-2.210341-0.298805-1.902326 0.629333 0.933255 2.835581 3.749394 11.333116 10.988262 14.196327 21.696138 8.544607 49.733705-14.332427 90.812285-23.202445 123.233696-26.601868 22.021549-3.083222 31.619138 0.545422 28.766161 10.926864-2.920516 22.969131-0.588401 45.77044 6.910387 68.443835 4.653997 20.465101 13.71128 44.735877 27.199479 72.745814 10.017144 17.661242 26.945699 40.356127 50.805106 68.080561 14.430664 12.000312 21.630646 24.283056 21.621437 36.860513 1.24127 3.765767-0.652869 7.538697-5.689582 11.316743-3.507894 2.186805-7.733125 2.01489-12.742209-0.505513-10.110265 1.226944-30.341029-21.923312-60.711733-69.521377-10.987239-20.459984-24.913413-49.926086-41.795918-88.354304-11.54801-34.936697-19.205411-58.09207-22.954805-69.429279 1.614777-14.135952-9.392928-18.897396-33.000602-14.239306-28.03859 4.03899-62.671365 13.404288-103.889115 28.066219-13.244652 4.378727-27.41335 9.066493-42.514279 14.056134-35.277458 13.776771-60.778248 25.351388-76.541257 34.740222-15.744589 9.406231-21.592784 20.2543-17.535375 32.518624 0.633427 1.90335 1.408069 4.253884 2.340301 7.085372 20.958334 38.139645 34.735106 73.39766 41.274032 105.813954 16.519232 68.957535 18.253736 115.517967 5.335519 139.706879-3.189645 3.14155-6.641257 5.334495-10.399861 6.579859-4.122901 0.310062-6.604418-0.955768-7.54586-3.791349-1.576915-11.021008-2.332115-22.806425-2.275833-35.402301 0.335644-11.625782-0.876973-34.293037-3.610224-67.967998-0.326435-7.211239-0.913812-12.271488-1.846044-15.108093-2.518357-13.833053-9.54233-35.084053-21.089317-63.761186-4.365424-13.217023-7.499811-22.670326-9.365298-28.336372-9.402137-22.040992-22.907733-37.47245-40.481993-46.348608-11.005658-7.881504-3.096525-18.868743 23.682375-32.981159 41.255613-20.958334 75.916017-36.620036 103.936187-46.941102 20.762883-6.869455 28.635177-14.699794 23.654746-23.537066-2.499937-7.550976-3.291976-13.063527-2.322905-16.523325-0.932232-2.835581 0.457418-4.863774 4.263094-6.123464C264.316409 457.453686 269.474896 457.313493 274.223037 458.890408zM196.449719 613.496625c11.025101-4.676509 20.296255-8.28264 27.870768-10.786671 22.675442-7.494695 48.949852-16.700357 78.881558-27.650757 46.889937-16.541745 85.943394-28.420283 117.125581-35.58752 8.16189-0.583285 10.222829 2.396583 6.110161 8.981559-2.556219 5.045923-18.262946 11.30037-47.234791 18.767436-17.004279 5.617951-36.843116 12.181437-59.509349 19.676132 4.701069 1.590218 8.93551 4.901637 12.713556 9.942443 2.173502 0.335644 3.459798 0.964978 3.767813 1.895163 8.469905 0.343831 18.570961-0.88209 30.221302-3.699252 34.939767-8.4126 56.001455-4.886287 63.21167 10.530844 8.450463 12.928451 1.51961 23.617907-20.847817 32.04381-19.86749 9.715269-26.955932 23.058159-21.331841 40.060391 8.422833 19.22076 28.215622 34.68087 59.350736 46.390563 33.644261 6.683213 52.494585 13.025665 56.589856 19.019169 2.797719 2.216481 2.806929 5.358031-0.01842 9.44-3.508917 2.182712-7.42511 2.965541-11.809977 2.325975-29.922497-1.6465-57.428967-8.786107-82.537831-21.433148-28.616758-16.720823-44.771693-37.069267-48.465828-60.996213-2.191922-12.881378 6.016017-26.079982 24.64326-39.581484 10.400884-6.585999 13.684674-12.387122 9.953699-17.438161-6.305613-6.29538-17.918092-6.650467-34.922371-1.030469-9.476839 3.134387-17.004279 5.624091-22.675442 7.493671-1.585101 1.586125-4.878101 4.244674-9.924024 8.003278-27.086915 13.151531-42.588981 36.087916-46.422286 68.790736-4.77577 23.582091-3.917216 48.451502 2.65855 74.571393 2.463098 13.848403 1.670036 24.055882-2.434445 30.66951-2.24718 5.974062-4.924149 10.520611-8.058536 13.665231-3.180436 3.143597-6.333242 3.128247-9.438976-0.01842-4.711302-7.872295-8.786107-23.303752-12.153808-46.284139-0.942465-2.828418-1.557472-4.714372-1.874697-5.666046-1.89414-11.948123 0.867764-35.381835 8.18952-70.293973 4.15053-25.469068 18.365276-49.034786 42.644239-70.687946 11.323906-10.033517 8.207939-19.463284-9.373485-28.342512-37.179784 14.411221-61.244876 23.935132-72.268954 28.616758-21.732977 10.326183-32.91669 11.422144-33.513278 3.222391C181.162548 621.182678 184.809611 616.31788 196.449719 613.496625zM212.633307 557.850258c13.18837-4.361331 28.177759-9.836019 44.874023-16.412808 46.263673-18.439978 83.266425-30.131251 110.986767-35.127032 12.899798 0.988514 14.45727 5.709025 4.682649 14.168698-1.902326 0.629333-4.738931 1.566682-8.497535 2.812045-9.15859 4.086062-15.604396 6.734378-19.37221 7.979742-26.7789 7.825222-56.83238 18.272155-90.214674 31.396057-10.707876 5.65786-22.704095 10.656711-35.901675 15.018042-14.830777 5.959735-21.592784 4.533246-20.287045-4.294816C198.269158 565.227272 202.848453 560.055482 212.633307 557.850258z" fill="#eb4f38"></path></g></g></svg>