<?xml version="1.0" encoding="iso-8859-1"?>
<!-- Generator: Adobe Illustrator 19.0.0, SVG Export Plug-In . SVG Version: 6.00 Build 0)  -->
<svg version="1.1" id="Layer_1" xmlns="http://www.w3.org/2000/svg" xmlns:xlink="http://www.w3.org/1999/xlink" x="0px" y="0px"
	 viewBox="0 0 498.476 498.476" style="enable-background:new 0 0 498.476 498.476;" xml:space="preserve">
<path style="fill:#C6A563;" d="M57.238,412.8c0,8.8-7.2,15.2-16,15.2l0,0c-8.8,0-16-7.2-16-15.2V229.6c0-8.8,7.2-15.2,16-15.2l0,0
	c8.8,0,16,7.2,16,15.2V412.8z"/>
<path style="fill:#AD8A4E;" d="M42.838,214.4L42.838,214.4c8.8,0,14.4,7.2,14.4,15.2v191.2c0,8.8-5.6,15.2-14.4,15.2l0,0
	c-8.8,0-15.2-7.2-15.2-15.2"/>
<path style="fill:#C6A563;" d="M473.238,412.8c0,8.8-7.2,15.2-16,15.2l0,0c-8.8,0-16-7.2-16-15.2V229.6c0-8.8,7.2-15.2,16-15.2l0,0
	c8.8,0,16,7.2,16,15.2V412.8z"/>
<path style="fill:#AD8A4E;" d="M458.838,214.4L458.838,214.4c8.8,0,14.4,7.2,14.4,15.2v183.2c0,8.8-5.6,15.2-14.4,15.2l0,0
	c-8.8,0-15.2-7.2-15.2-15.2"/>
<path style="fill:#76CBD6;" d="M425.238,344V77.6c0-44-38.4-77.6-82.4-77.6h-187.2c-44,0-82.4,33.6-82.4,77.6V344H425.238z"/>
<path style="fill:#8EE3E8;" d="M393.238,344V100.8c0-40-28.8-68.8-65.6-68.8h-156.8c-36.8,0-65.6,28.8-65.6,68.8V344H393.238z"/>
<path style="fill:#A5F2F2;" d="M393.238,344V100.8c0-40-28.8-68.8-65.6-68.8h-156.8c-36.8,0-65.6,28.8-65.6,68.8"/>
<path style="fill:#CBF7F6;" d="M393.238,216V100.8c0-40-28.8-68.8-65.6-68.8h-158.4"/>
<g>
	<path style="fill:#00233F;" d="M45.238,487.2c-0.8,6.4-4,12-6.4,11.2l-7.2-0.8c-2.4,0-4-6.4-3.2-12.8l5.6-92.8
		c0.8-6.4,4-12,6.4-11.2l20.8,2.4c2.4,0,4,5.6,3.2,12.8L45.238,487.2z"/>
	<path style="fill:#00233F;" d="M453.238,487.2c0.8,6.4,4,12,6.4,11.2l7.2-0.8c2.4,0,4-6.4,3.2-12.8l-5.6-92.8
		c-0.8-6.4-4-12-6.4-11.2l-20.8,2.4c-2.4,0-4,5.6-3.2,12.8L453.238,487.2z"/>
</g>
<rect x="25.238" y="328" style="fill:#C6A563;" width="440" height="104"/>
<polyline style="fill:#BC965B;" points="33.238,328 473.238,328 473.238,432 "/>
<rect x="25.238" y="328" style="fill:#E2BF81;" width="448" height="16"/>
<rect x="25.238" y="408" style="fill:#AD8A4E;" width="448" height="24"/>
<circle style="fill:#00233F;" cx="249.238" cy="377.6" r="15.2"/>
<ellipse transform="matrix(-0.5262 -0.8503 0.8503 -0.5262 54.5802 776.3171)" style="fill:#13527C;" cx="243.554" cy="372.954" rx="6.4" ry="8.8"/>
<g>
</g>
<g>
</g>
<g>
</g>
<g>
</g>
<g>
</g>
<g>
</g>
<g>
</g>
<g>
</g>
<g>
</g>
<g>
</g>
<g>
</g>
<g>
</g>
<g>
</g>
<g>
</g>
<g>
</g>
</svg>
