<?xml version="1.0" encoding="iso-8859-1"?>
<!-- Generator: Adobe Illustrator 19.0.0, SVG Export Plug-In . SVG Version: 6.00 Build 0)  -->
<svg version="1.1" id="Layer_1" xmlns="http://www.w3.org/2000/svg" xmlns:xlink="http://www.w3.org/1999/xlink" x="0px" y="0px"
	 viewBox="0 0 496.246 496.246" style="enable-background:new 0 0 496.246 496.246;" xml:space="preserve">
<path style="fill:#08C19D;" d="M487.44,440.753c0,4.852-3.946,8.791-8.814,8.791H17.613c-4.86,0-8.814-3.938-8.814-8.791v-258.41
	c0-4.86,3.946-8.799,8.814-8.799h461.013c4.86,0,8.814,3.938,8.814,8.799V440.753z"/>
<path style="fill:#07A083;" d="M8.799,182.343c0-4.86,3.946-8.799,8.814-8.799h461.013c4.86,0,8.814,3.938,8.814,8.799v258.41
	c0,4.852-3.946,8.791-8.814,8.791"/>
<path style="fill:#18EAC6;" d="M478.625,458.358H17.613C7.901,458.358,0,450.458,0,440.753v-258.41
	c0-9.704,7.901-17.613,17.613-17.613h461.013c9.712,0,17.621,7.908,17.621,17.613v258.41
	C496.246,450.458,488.346,458.358,478.625,458.358z M17.613,182.343v258.41h461.021l-0.008-258.41L17.613,182.343L17.613,182.343z"
	/>
<g>
	<path style="fill:#3BFFD9;" d="M108.449,318.228c-16.006-6.223-18.597-9.287-18.597-14.202c0-4.427,4.364-8.877,14.052-8.877
		c10.224,0,17.495,3.348,20.165,4.766c1.252,0.67,2.686,0.717,3.978,0.228c1.268-0.543,2.261-1.623,2.678-2.954l5.002-16.526
		c0.654-2.15-0.331-4.435-2.316-5.467c-5.482-2.812-14.99-6.176-29.152-6.176c-26.096,0-44.339,15.202-44.339,36.998
		c0,16.841,10.949,28.94,33.414,37.053c15.659,5.656,16.943,10.035,16.943,14.336c0,9.681-11.083,10.736-15.896,10.736
		c-8.428,0-17.723-2.465-24.875-6.569c-1.26-0.733-2.788-0.803-4.088-0.276c-1.323,0.559-2.316,1.717-2.678,3.111l-4.498,17.022
		c-0.559,2.001,0.284,4.104,2.072,5.159c7.601,4.498,21.031,7.664,32.744,7.664c34.958,0,47.38-20.653,47.38-38.337
		C140.438,338.164,130.544,326.546,108.449,318.228z"/>
	<path style="fill:#3BFFD9;" d="M220.255,274.054c-0.622-1.906-2.41-3.206-4.411-3.206h-26.199c-2.009,0-3.781,1.315-4.403,3.222
		l-36.053,112.475c-0.457,1.394-0.213,2.954,0.654,4.135c0.874,1.189,2.284,1.89,3.742,1.89h21.228c2.001,0,3.805-1.315,4.427-3.253
		l8.68-28.609h28.877l9.145,28.656c0.622,1.922,2.395,3.206,4.435,3.206h22h0.213c2.56,0,4.632-2.064,4.632-4.624
		c0-0.969-0.315-1.843-0.78-2.584L220.255,274.054z M202.13,309.965c0.41,1.457,0.859,2.907,1.3,4.332l6.932,21.63h-16.242
		l6.829-21.717C201.358,312.84,201.767,311.398,202.13,309.965z"/>
	<path style="fill:#3BFFD9;" d="M342.457,366.127h-41.59v-90.624c0-2.576-2.064-4.655-4.616-4.655h-20.535
		c-2.56,0-4.647,2.079-4.647,4.655v112.451c0,2.56,2.095,4.624,4.647,4.624h66.741c2.576,0,4.647-2.064,4.647-4.624v-17.187
		C347.105,368.207,345.033,366.127,342.457,366.127z"/>
	<path style="fill:#3BFFD9;" d="M433.538,366.482h-42.74v-23.78h37.754c2.56,0,4.6-2.095,4.6-4.639v-16.683
		c0-2.576-2.04-4.639-4.6-4.639h-37.754v-19.763h40.235c2.576,0,4.647-2.095,4.647-4.647v-16.841c0-2.576-2.08-4.655-4.647-4.655
		h-65.426c-2.544,0-4.616,2.079-4.616,4.655v112.451c0,2.56,2.08,4.624,4.616,4.624h67.923c2.56,0,4.632-2.064,4.632-4.624v-16.841
		C438.17,368.545,436.09,366.482,433.538,366.482z"/>
</g>
<g>
	<path style="fill:#24EAC3;" d="M220.255,274.054c-0.622-1.906-2.41-3.206-4.411-3.206h-26.199c-2.009,0-3.781,1.315-4.403,3.222
		l-2.339,7.302l48.735,27.719L220.255,274.054z"/>
	<path style="fill:#24EAC3;" d="M342.457,366.127h-10.508l15.163,8.625v-3.986C347.105,368.207,345.033,366.127,342.457,366.127z"/>
	<path style="fill:#24EAC3;" d="M296.251,270.848h-20.535c-2.56,0-4.647,2.079-4.647,4.655V331.5l29.806,16.959v-72.964
		C300.867,272.92,298.803,270.848,296.251,270.848z"/>
	<path style="fill:#24EAC3;" d="M433.538,366.482h-42.74v-23.78h37.754c2.56,0,4.6-2.095,4.6-4.639v-16.683
		c0-2.576-2.04-4.639-4.6-4.639h-37.754v-19.763h40.235c2.576,0,4.647-2.095,4.647-4.647v-16.841c0-2.576-2.08-4.655-4.647-4.655
		h-65.426c-2.544,0-4.616,2.079-4.616,4.655v107.158l17.463,9.925h55.083c2.56,0,4.632-2.064,4.632-4.624v-16.841
		C438.17,368.545,436.09,366.482,433.538,366.482z"/>
</g>
<circle style="fill:#EBF0F2;" cx="88.198" cy="217.19" r="13.084"/>
<path style="fill:#03F4C6;" d="M88.198,234.157c-9.35,0-16.959-7.617-16.959-16.959c0-9.358,7.609-16.959,16.959-16.959
	s16.959,7.601,16.959,16.959C105.165,226.54,97.548,234.157,88.198,234.157z M88.198,207.982c-5.088,0-9.208,4.112-9.208,9.208
	c0,5.073,4.12,9.208,9.208,9.208c5.073,0,9.208-4.135,9.208-9.208C97.406,212.102,93.271,207.982,88.198,207.982z"/>
<circle style="fill:#EBF0F2;" cx="408.048" cy="217.19" r="13.084"/>
<path style="fill:#03F4C6;" d="M408.048,234.157c-9.358,0-16.959-7.617-16.959-16.959c0-9.358,7.601-16.959,16.959-16.959
	c9.342,0,16.959,7.601,16.959,16.959C425.007,226.54,417.39,234.157,408.048,234.157z M408.048,207.982
	c-5.081,0-9.208,4.112-9.208,9.208c0,5.073,4.128,9.208,9.208,9.208c5.081,0,9.208-4.135,9.208-9.208
	C417.256,212.102,413.129,207.982,408.048,207.982z"/>
<path style="fill:#4D5B58;" d="M406.394,222.523c-1.985,0-3.97-0.764-5.482-2.269L248.123,67.458L95.334,220.255
	c-3.033,3.025-7.94,3.025-10.965,0c-3.033-3.033-3.033-7.94,0-10.973L248.123,45.529l163.753,163.753
	c3.033,3.033,3.033,7.94,0,10.973C410.364,221.759,408.379,222.523,406.394,222.523z"/>
<circle style="fill:#EA186D;" cx="248.123" cy="65.993" r="28.105"/>
<path style="fill:#C91768;" d="M267.989,46.119c10.98,10.965,10.98,28.751,0,39.739c-10.98,10.98-28.774,10.98-39.755,0"/>
<g>
</g>
<g>
</g>
<g>
</g>
<g>
</g>
<g>
</g>
<g>
</g>
<g>
</g>
<g>
</g>
<g>
</g>
<g>
</g>
<g>
</g>
<g>
</g>
<g>
</g>
<g>
</g>
<g>
</g>
</svg>
