<?xml version="1.0" encoding="iso-8859-1"?>
<!-- Generator: Adobe Illustrator 19.0.0, SVG Export Plug-In . SVG Version: 6.00 Build 0)  -->
<svg version="1.1" id="Layer_1" xmlns="http://www.w3.org/2000/svg" xmlns:xlink="http://www.w3.org/1999/xlink" x="0px" y="0px"
	 viewBox="0 0 512.457 512.457" style="enable-background:new 0 0 512.457 512.457;" xml:space="preserve">
<rect x="21.429" y="126.057" style="fill:#FF583E;" width="469.6" height="115.2"/>
<polyline style="fill:#EF3930;" points="443.829,241.257 443.829,512.457 69.429,512.457 69.429,241.257 "/>
<path style="fill:#FFD67F;" d="M410.229,33.257c-4-12-16-26.4-47.2-32c-26.4-4-50.4,1.6-69.6,16c-18.4,13.6-30.4,33.6-36.8,51.2
	c-7.2-17.6-18.4-37.6-36.8-51.2c-19.2-14.4-43.2-20-69.6-15.2c-31.2,4.8-43.2,20-47.2,32c-5.6,16-0.8,34.4,13.6,51.2
	c19.2,21.6,54.4,40,98.4,40.8v386.4h84v-387.2c44-0.8,79.2-19.2,98.4-40.8C411.029,68.457,416.629,49.257,410.229,33.257z
	 M133.429,44.457c1.6-4,8-8.8,22.4-10.4c4-0.8,8-0.8,12-0.8c12.8,0,23.2,3.2,32.8,10.4c16.8,12.8,26.4,34.4,30.4,48.8
	c-40.8,4-74.4-11.2-89.6-29.6C135.029,56.457,131.829,49.257,133.429,44.457z M372.629,62.857c-15.2,17.6-48.8,32.8-89.6,29.6
	c4-14.4,12.8-36,29.6-48.8c12-8.8,27.2-12,44.8-9.6c14.4,2.4,20.8,7.2,22.4,10.4C381.429,49.257,378.229,56.457,372.629,62.857z"/>
<g>
</g>
<g>
</g>
<g>
</g>
<g>
</g>
<g>
</g>
<g>
</g>
<g>
</g>
<g>
</g>
<g>
</g>
<g>
</g>
<g>
</g>
<g>
</g>
<g>
</g>
<g>
</g>
<g>
</g>
</svg>
